<svg width="61" height="63" viewBox="0 0 61 63" fill="#ffff" xmlns="http://www.w3.org/2000/svg">
<path d="M23.1317 62.3018V41.2772H16.8436V31.6159H23.1317V27.4532C23.1317 16.6906 27.8287 11.7032 38.0208 11.7032C39.04 11.7032 40.4481 11.8138 41.752 11.9745C42.7286 12.0787 43.6974 12.2503 44.652 12.4883V21.2485C44.1001 21.1952 43.5465 21.1635 42.9923 21.1537C42.3714 21.137 41.7503 21.1291 41.1292 21.13C39.3323 21.13 37.9293 21.3829 36.872 21.9441C36.1611 22.3138 35.5636 22.8812 35.1462 23.5828C34.4904 24.6894 34.1956 26.2043 34.1956 28.1988V31.6159H44.1564L43.1753 37.1566L42.4458 41.2772H34.1956V63C49.2982 61.1083 61 47.7796 61 31.6159C61 14.156 47.3436 0 30.5 0C13.6564 0 0 14.156 0 31.6159C0 46.4438 9.84642 58.8847 23.1317 62.3018Z" fill="#1877F2"/>
</svg>
